<svg width="548" height="685" viewBox="0 0 548 685" fill="none" xmlns="http://www.w3.org/2000/svg">
<path d="M104.269 655.882C104.269 655.884 104.267 655.885 104.265 655.884C92.9167 648.087 87.1018 634.949 85.7144 631.476C85.4834 630.897 85.2432 630.334 84.9887 629.765C81.1831 621.268 79.9585 608.301 79.9585 603.918V603.918C79.9585 603.897 79.9415 603.88 79.9205 603.879C43.2213 602.734 13.8377 572.7 13.8377 535.831C13.8377 521.595 18.2198 508.371 25.7226 497.437C27.4488 494.93 27.1833 491.544 24.9827 489.434C14.8811 479.777 8.59243 466.184 8.59243 451.115C8.59243 430.504 20.373 412.635 37.579 403.848C41.1928 402.003 42.1318 397.331 39.4949 394.247C31.5369 384.967 26.7375 372.926 26.7375 359.768C26.7375 344.738 32.9882 331.183 43.0614 321.525C45.4137 319.274 45.6318 315.575 43.5261 313.097C32.5993 300.185 21.1507 282.828 15.8201 271.316C5.6141 249.295 2.22791 229.932 0.406771 199.71C-0.93063 177.746 1.15609 157.295 4.81735 130.592C8.7347 101.978 17.1101 62.6659 44.5884 28.1117C50.8581 20.2227 78.7159 -5.69533 97.5059 1.13417C106.327 4.33136 116.903 12.0122 122.262 58.7309C128.684 114.71 132.743 126.317 142.342 152.32C148.944 170.226 155.213 179.959 160.326 186.865C162.147 189.314 165.486 190.081 168.189 188.652C173.899 185.635 180.415 183.932 187.33 183.932C190.46 183.932 193.505 184.282 196.436 184.944C199.025 185.531 201.681 184.462 203.104 182.23C219.238 156.851 247.655 140.004 280.019 140.004C314.933 140.004 345.267 159.613 360.519 188.397C362.34 191.84 366.893 192.786 369.909 190.308C374.12 186.865 378.36 182.948 382.012 178.673C396.543 161.628 406.408 147.496 412.346 94.0325C419.108 33.0588 429.258 13.8662 446.824 5.88266C457.134 1.19092 467.321 3.33815 472.481 4.4165C509.976 12.296 527.239 60.9822 532.996 77.2046C544.853 110.605 549.557 140.534 546.769 183.554C543.506 233.886 528.718 254.365 510.877 279.81C508.676 282.941 498.575 296.903 482.81 307.62C479.358 309.966 479.168 314.97 482.422 317.571C494.022 326.85 501.449 341.115 501.449 357.091C501.449 365.728 499.277 373.872 495.454 380.985C493.68 384.286 495.236 388.42 498.764 389.697C519.195 397.113 533.783 416.656 533.783 439.594C533.783 452.231 529.354 463.828 521.956 472.947C520.201 475.113 520.049 478.159 521.642 480.448C529.297 491.449 533.774 504.805 533.774 519.212C533.774 545.659 518.645 568.579 496.554 579.845C494.591 580.847 493.31 582.796 493.149 584.991C490.626 620.292 461.099 648.13 425.046 648.13C421.337 648.13 407.11 645.387 406.692 645.643C406.389 645.822 407.878 657.968 386.167 672.138C363.45 686.96 275.38 687.036 228.752 679.383C206.642 675.751 182.806 675.202 178.86 675.278C142.135 675.959 129.7 673.349 104.273 655.88C104.271 655.879 104.269 655.88 104.269 655.882V655.882Z" fill="#7856A0"/>
<path d="M229.074 577.262C210.37 577.262 195.487 589.105 195.487 592.567C195.487 601.128 215.055 614.872 231.038 614.872C248.481 614.872 266.654 598.441 266.654 592.369C266.654 589.417 247.769 577.262 229.074 577.262ZM229.074 577.262C210.37 577.262 195.487 589.105 195.487 592.567C195.487 601.128 215.055 614.872 231.038 614.872C248.481 614.872 266.654 598.441 266.654 592.369C266.654 589.417 247.769 577.262 229.074 577.262ZM229.074 577.262C210.37 577.262 195.487 589.105 195.487 592.567C195.487 601.128 215.055 614.872 231.038 614.872C248.481 614.872 266.654 598.441 266.654 592.369C266.654 589.417 247.769 577.262 229.074 577.262ZM229.074 577.262C210.37 577.262 195.487 589.105 195.487 592.567C195.487 601.128 215.055 614.872 231.038 614.872C248.481 614.872 266.654 598.441 266.654 592.369C266.654 589.417 247.769 577.262 229.074 577.262ZM518.607 440.994C518.607 417.324 501.496 397.634 478.927 393.576C476.229 393.09 474.853 389.395 476.587 387.271V387.271C478.386 385.068 476.094 382.353 473.464 383.437L413.607 408.105C411.093 409.141 409.453 411.591 409.453 414.31V414.31C409.329 420.78 409.756 426.635 409.756 433.2C409.756 473.373 377.317 505.988 337.043 505.988C299.549 505.988 268.665 477.781 264.577 441.476C264.264 438.781 264.112 436.037 264.112 433.256V433.256C264.112 418.993 252.543 407.434 238.279 407.447L217.39 407.465C208.094 407.473 200.562 415.012 200.562 424.308V424.308C200.581 427.24 200.609 430.211 200.609 433.256C200.609 473.429 167.962 505.988 127.678 505.988C90.1931 505.988 55.174 478.008 55.174 441.476V441.476C55.174 423.655 36.7345 411.886 27.7974 427.304C23.8237 434.159 21.5493 442.117 21.5493 450.604C21.5493 451.161 21.5591 451.716 21.5785 452.268C22.4123 475.969 27.136 509.297 27.136 533.012V533.012C27.136 566.006 53.9504 592.756 87.025 592.756V592.756C89.3066 592.756 91.1731 594.672 91.1135 596.953C91.1007 597.445 91.0941 597.938 91.0941 598.432C91.0941 631.312 117.823 657.968 150.784 657.968V657.968C174.372 657.968 215.254 664.306 237.525 672.077C243.924 674.31 250.803 675.524 257.966 675.524C261.939 675.524 265.825 675.151 269.589 674.437C291.581 670.27 317.714 667.73 340.098 667.73V667.73C357.884 667.73 373.919 660.261 385.224 648.294C394.03 638.971 407.46 633.157 420.285 633.157V633.157C454.526 633.157 482.279 605.479 482.279 571.341V571.341C482.279 570.639 482.68 569.995 483.308 569.681C503.652 559.537 517.611 538.572 517.611 514.359C517.611 513.256 517.582 512.159 517.525 511.07C516.374 489.236 518.607 462.858 518.607 440.994V440.994ZM315.184 544.52C315.101 544.588 315.018 544.656 314.933 544.723V544.723C313.42 545.859 301.505 554.56 286.085 557.1C282.505 557.689 279.763 560.846 279.763 564.474V564.474C279.763 595.027 257.947 619.791 231.038 619.791C204.128 619.791 182.322 595.027 182.322 564.474V564.474C182.322 560.77 179.592 557.514 175.958 556.801C161.364 553.935 150.253 545.818 148.792 544.723C148.745 544.685 148.707 544.647 148.669 544.619C147.929 544.08 147.455 543.2 147.455 542.226C147.455 540.58 148.792 539.246 150.443 539.246C151.144 539.246 151.799 539.492 152.321 539.908V539.908C152.337 539.924 152.351 539.929 152.369 539.942C153.346 540.661 168.535 551.798 186.088 551.798C190.498 551.798 195.061 551.098 199.575 549.348C203.73 547.74 224.635 538.688 227.87 518.294V518.294C228.297 515.547 226.509 513.043 224.233 511.446C214.388 504.538 201.635 486.481 206.746 476.939C214.581 462.353 248.775 462.069 255.557 477.279C259.656 486.484 249.547 502.488 239.933 510.044C237.35 512.075 235.349 515.048 235.856 518.294V518.294C239.09 538.688 259.996 547.74 264.15 549.348C268.665 551.098 273.227 551.798 277.638 551.798C295.241 551.798 310.468 540.596 311.364 539.936C311.376 539.928 311.382 539.931 311.394 539.923V539.923C311.402 539.917 311.409 539.905 311.417 539.899C311.936 539.488 312.586 539.246 313.293 539.246C314.933 539.246 316.271 540.58 316.271 542.226C316.271 543.143 315.851 543.976 315.184 544.52ZM229.074 577.262C210.37 577.262 195.487 589.105 195.487 592.567C195.487 601.128 215.055 614.872 231.038 614.872C248.481 614.872 266.654 598.441 266.654 592.369C266.654 589.417 247.769 577.262 229.074 577.262ZM229.074 577.262C210.37 577.262 195.487 589.105 195.487 592.567C195.487 601.128 215.055 614.872 231.038 614.872C248.481 614.872 266.654 598.441 266.654 592.369C266.654 589.417 247.769 577.262 229.074 577.262ZM229.074 577.262C210.37 577.262 195.487 589.105 195.487 592.567C195.487 601.128 215.055 614.872 231.038 614.872C248.481 614.872 266.654 598.441 266.654 592.369C266.654 589.417 247.769 577.262 229.074 577.262ZM522.164 90.2393C518.171 76.4952 504.579 26.8631 478.96 19.1728C474.928 17.962 462.569 15.8148 454.213 19.3809C439.985 25.4631 434.531 49.0731 427.19 99.6796C420.968 142.482 414.376 163.983 402.225 177.718V177.718C384.03 198.323 350.831 185.911 328.463 169.932C314.925 160.262 298.338 154.571 280.417 154.571C249.507 154.571 222.567 171.482 208.393 196.543C208.384 196.559 208.388 196.58 208.401 196.592V196.592C208.418 196.608 208.424 196.634 208.411 196.654C208.013 197.295 207.65 197.944 207.277 198.603C207.258 198.641 207.23 198.679 207.211 198.717V198.717C206.988 199.14 206.412 199.261 206.011 199.002C200.301 195.322 196.186 195.121 190.887 194.867C190.603 194.848 190.318 194.848 190.033 194.848C172.22 194.848 157.775 209.245 157.775 227.009C157.775 229.781 158.125 232.477 158.789 235.049C158.897 235.47 159.014 235.887 159.139 236.303C159.64 237.968 158.252 239.779 156.513 239.779V239.779C155.963 239.779 155.422 239.798 154.891 239.826C141.517 240.668 130.941 251.745 130.941 265.281C130.941 267.655 131.264 269.963 131.88 272.148C131.931 272.335 131.985 272.522 132.041 272.708C132.714 274.945 131.991 277.443 130.22 278.968V278.968C124.605 283.736 121.048 290.839 121.048 298.776C121.048 308.85 126.806 317.599 135.219 321.913C135.412 322.012 135.606 322.109 135.801 322.203C138.373 323.449 140.423 325.653 141.46 328.317V328.317C145.624 339.478 156.409 347.424 169.052 347.424C176.527 347.424 183.346 344.653 188.535 340.065V340.065C190.309 338.509 192.882 338.084 195.049 339.018C195.069 339.026 195.088 339.035 195.108 339.043C198.883 340.651 203.019 341.531 207.382 341.531C221.221 341.531 232.973 332.602 237.137 320.21V320.21C237.694 318.53 239.685 317.672 241.235 318.528C241.348 318.591 241.462 318.653 241.576 318.716C254.191 325.668 268.694 329.622 284.116 329.622V329.622C291.113 329.622 294.729 335.552 287.741 335.894C286.468 335.956 285.187 335.988 283.898 335.988C282.959 335.988 282.023 335.971 281.092 335.938C259.987 335.182 229.989 347.036 208.871 347.036V347.036V347.036C198.648 347.036 187.308 348.678 177.494 351.541C174.545 352.402 171.425 352.863 168.199 352.863C165.717 352.863 163.299 352.59 160.974 352.073C138.378 347.049 115.433 321.924 115.433 298.776V298.776C115.433 292.165 117.586 286.062 121.233 281.127C124.668 276.48 126.616 270.54 126.616 264.761V264.761C126.616 252.656 133.851 242.235 144.245 237.567C148.742 235.547 152.046 230.775 152.046 225.846V225.846C152.046 219.323 153.796 213.203 156.858 207.944C157.074 207.573 157.074 207.114 156.836 206.757V206.757C150.443 196.759 141.745 184.386 133.17 163.813C123.552 140.78 118.592 127.745 111.933 78.7654C106.204 36.6533 103.567 18.7566 90.6104 15.2851C74.1917 10.896 51.2756 41.3734 45.7268 51.7028C27.4016 85.8408 20.5628 123.573 18.9693 149.718C17.4896 174.104 16.5885 197.137 19.0167 216.964C22.3555 244.253 27.781 254.63 37.9775 273.387V273.387C50.6223 296.693 43.2512 334.114 43.2512 360.629V360.629V360.629C43.2512 384.685 70.7351 394.502 94.7913 394.502H386.464C400.332 394.502 414.07 391.829 426.925 386.628L482.387 364.189C485.199 363.052 487.221 360.456 487.221 357.422V357.422V357.422C487.221 339.519 488.001 283.487 498.888 269.274C499.315 268.716 499.636 268.284 499.846 267.996C514.908 247.346 530.198 218.051 531.128 175.901C531.953 138.509 530.397 118.522 522.164 90.2393ZM68.6429 252.218C39.8176 230.651 37.1238 178.966 42.4544 128.861C45.4328 100.805 64.2702 52.7906 74.5805 56.8769C86.8069 61.72 97.3069 125.654 114.399 171.616C125.924 202.605 131.861 211.373 127.754 226.725C121.921 248.529 91.9668 269.67 68.6429 252.218ZM468.981 234.009C447.431 240.432 431.392 228.258 426.023 203.021C421.518 181.842 442.499 176.772 452.117 120.887C458.045 86.4084 445.876 46.5097 472.026 46.5097C492.609 46.5097 507.443 104.04 508.629 123.422C511.067 163.368 500.415 224.644 468.981 234.009Z" fill="white" stroke="#A07EB7" stroke-width="12" stroke-miterlimit="10"/>
<path d="M229.074 577.262C210.37 577.262 195.487 589.105 195.487 592.567C195.487 601.128 215.055 614.872 231.038 614.872C248.481 614.872 266.654 598.441 266.654 592.369C266.654 589.417 247.769 577.262 229.074 577.262ZM229.074 577.262C210.37 577.262 195.487 589.105 195.487 592.567C195.487 601.128 215.055 614.872 231.038 614.872C248.481 614.872 266.654 598.441 266.654 592.369C266.654 589.417 247.769 577.262 229.074 577.262ZM229.074 577.262C210.37 577.262 195.487 589.105 195.487 592.567C195.487 601.128 215.055 614.872 231.038 614.872C248.481 614.872 266.654 598.441 266.654 592.369C266.654 589.417 247.769 577.262 229.074 577.262ZM229.074 577.262C210.37 577.262 195.487 589.105 195.487 592.567C195.487 601.128 215.055 614.872 231.038 614.872C248.481 614.872 266.654 598.441 266.654 592.369C266.654 589.417 247.769 577.262 229.074 577.262ZM518.607 440.994C518.607 417.324 501.496 397.634 478.927 393.576C476.229 393.09 474.853 389.395 476.587 387.271V387.271C478.386 385.068 476.094 382.353 473.464 383.437L413.607 408.105C411.093 409.141 409.453 411.591 409.453 414.31V414.31C409.329 420.78 409.756 426.635 409.756 433.2C409.756 473.373 377.317 505.988 337.043 505.988C299.549 505.988 268.665 477.781 264.577 441.476C264.264 438.781 264.112 436.037 264.112 433.256V433.256C264.112 418.993 252.543 407.434 238.279 407.447L217.39 407.465C208.094 407.473 200.562 415.012 200.562 424.308V424.308C200.581 427.24 200.609 430.211 200.609 433.256C200.609 473.429 167.962 505.988 127.678 505.988C90.1931 505.988 55.174 478.008 55.174 441.476V441.476C55.174 423.655 36.7345 411.886 27.7974 427.304C23.8237 434.159 21.5493 442.117 21.5493 450.604C21.5493 451.161 21.5591 451.716 21.5785 452.268C22.4123 475.969 27.136 509.297 27.136 533.012V533.012C27.136 566.006 53.9504 592.756 87.025 592.756V592.756C89.3066 592.756 91.1731 594.672 91.1135 596.953C91.1007 597.445 91.0941 597.938 91.0941 598.432C91.0941 631.312 117.823 657.968 150.784 657.968V657.968C174.372 657.968 215.254 664.306 237.525 672.077C243.924 674.31 250.803 675.524 257.966 675.524C261.939 675.524 265.825 675.151 269.589 674.437C291.581 670.27 317.714 667.73 340.098 667.73V667.73C357.884 667.73 373.919 660.261 385.224 648.294C394.03 638.971 407.46 633.157 420.285 633.157V633.157C454.526 633.157 482.279 605.479 482.279 571.341V571.341C482.279 570.639 482.68 569.995 483.308 569.681C503.652 559.537 517.611 538.572 517.611 514.359C517.611 513.256 517.582 512.159 517.525 511.07C516.374 489.236 518.607 462.858 518.607 440.994V440.994ZM315.184 544.52C315.101 544.588 315.018 544.656 314.933 544.723V544.723C313.42 545.859 301.505 554.56 286.085 557.1C282.505 557.689 279.763 560.846 279.763 564.474V564.474C279.763 595.027 257.947 619.791 231.038 619.791C204.128 619.791 182.322 595.027 182.322 564.474V564.474C182.322 560.77 179.592 557.514 175.958 556.801C161.364 553.935 150.253 545.818 148.792 544.723C148.745 544.685 148.707 544.647 148.669 544.619C147.929 544.08 147.455 543.2 147.455 542.226C147.455 540.58 148.792 539.246 150.443 539.246C151.144 539.246 151.799 539.492 152.321 539.908V539.908C152.337 539.924 152.351 539.929 152.369 539.942C153.346 540.661 168.535 551.798 186.088 551.798C190.498 551.798 195.061 551.098 199.575 549.348C203.73 547.74 224.635 538.688 227.87 518.294V518.294C228.297 515.547 226.509 513.043 224.233 511.446C214.388 504.538 201.635 486.481 206.746 476.939C214.581 462.353 248.775 462.069 255.557 477.279C259.656 486.484 249.547 502.488 239.933 510.044C237.35 512.075 235.349 515.048 235.856 518.294V518.294C239.09 538.688 259.996 547.74 264.15 549.348C268.665 551.098 273.227 551.798 277.638 551.798C295.241 551.798 310.468 540.596 311.364 539.936C311.376 539.928 311.382 539.931 311.394 539.923V539.923C311.402 539.917 311.409 539.905 311.417 539.899C311.936 539.488 312.586 539.246 313.293 539.246C314.933 539.246 316.271 540.58 316.271 542.226C316.271 543.143 315.851 543.976 315.184 544.52ZM229.074 577.262C210.37 577.262 195.487 589.105 195.487 592.567C195.487 601.128 215.055 614.872 231.038 614.872C248.481 614.872 266.654 598.441 266.654 592.369C266.654 589.417 247.769 577.262 229.074 577.262ZM229.074 577.262C210.37 577.262 195.487 589.105 195.487 592.567C195.487 601.128 215.055 614.872 231.038 614.872C248.481 614.872 266.654 598.441 266.654 592.369C266.654 589.417 247.769 577.262 229.074 577.262ZM229.074 577.262C210.37 577.262 195.487 589.105 195.487 592.567C195.487 601.128 215.055 614.872 231.038 614.872C248.481 614.872 266.654 598.441 266.654 592.369C266.654 589.417 247.769 577.262 229.074 577.262ZM522.164 90.2393C518.171 76.4952 504.579 26.8631 478.96 19.1728C474.928 17.962 462.569 15.8148 454.213 19.3809C439.985 25.4631 434.531 49.0731 427.19 99.6796C420.968 142.482 414.376 163.983 402.225 177.718V177.718C384.03 198.323 350.831 185.911 328.463 169.932C314.925 160.262 298.338 154.571 280.417 154.571C249.507 154.571 222.567 171.482 208.393 196.543C208.384 196.559 208.388 196.58 208.401 196.592V196.592C208.418 196.608 208.424 196.634 208.411 196.654C208.013 197.295 207.65 197.944 207.277 198.603C207.258 198.641 207.23 198.679 207.211 198.717V198.717C206.988 199.14 206.412 199.261 206.011 199.002C200.301 195.322 196.186 195.121 190.887 194.867C190.603 194.848 190.318 194.848 190.033 194.848C172.22 194.848 157.775 209.245 157.775 227.009C157.775 229.781 158.125 232.477 158.789 235.049C158.897 235.47 159.014 235.887 159.139 236.303C159.64 237.968 158.252 239.779 156.513 239.779V239.779C155.963 239.779 155.422 239.798 154.891 239.826C141.517 240.668 130.941 251.745 130.941 265.281C130.941 267.655 131.264 269.963 131.88 272.148C131.931 272.335 131.985 272.522 132.041 272.708C132.714 274.945 131.991 277.443 130.22 278.968V278.968C124.605 283.736 121.048 290.839 121.048 298.776C121.048 308.85 126.806 317.599 135.219 321.913C135.412 322.012 135.606 322.109 135.801 322.203C138.373 323.449 140.423 325.653 141.46 328.317V328.317C145.624 339.478 156.409 347.424 169.052 347.424C176.527 347.424 183.346 344.653 188.535 340.065V340.065C190.309 338.509 192.882 338.084 195.049 339.018C195.069 339.026 195.088 339.035 195.108 339.043C198.883 340.651 203.019 341.531 207.382 341.531C221.221 341.531 232.973 332.602 237.137 320.21V320.21C237.694 318.53 239.685 317.672 241.235 318.528C241.348 318.591 241.462 318.653 241.576 318.716C254.191 325.668 268.694 329.622 284.116 329.622V329.622C291.113 329.622 294.729 335.552 287.741 335.894C286.468 335.956 285.187 335.988 283.898 335.988C282.959 335.988 282.023 335.971 281.092 335.938C259.987 335.182 229.989 347.036 208.871 347.036V347.036V347.036C198.648 347.036 187.308 348.678 177.494 351.541C174.545 352.402 171.425 352.863 168.199 352.863C165.717 352.863 163.299 352.59 160.974 352.073C138.378 347.049 115.433 321.924 115.433 298.776V298.776C115.433 292.165 117.586 286.062 121.233 281.127C124.668 276.48 126.616 270.54 126.616 264.761V264.761C126.616 252.656 133.851 242.235 144.245 237.567C148.742 235.547 152.046 230.775 152.046 225.846V225.846C152.046 219.323 153.796 213.203 156.858 207.944C157.074 207.573 157.074 207.114 156.836 206.757V206.757C150.443 196.759 141.745 184.386 133.17 163.813C123.552 140.78 118.592 127.745 111.933 78.7654C106.204 36.6533 103.567 18.7566 90.6104 15.2851C74.1917 10.896 51.2756 41.3734 45.7268 51.7028C27.4016 85.8408 20.5628 123.573 18.9693 149.718C17.4896 174.104 16.5885 197.137 19.0167 216.964C22.3555 244.253 27.781 254.63 37.9775 273.387V273.387C50.6223 296.693 43.2512 334.114 43.2512 360.629V360.629V360.629C43.2512 384.685 70.7351 394.502 94.7913 394.502H386.464C400.332 394.502 414.07 391.829 426.925 386.628L482.387 364.189C485.199 363.052 487.221 360.456 487.221 357.422V357.422V357.422C487.221 339.519 488.001 283.487 498.888 269.274C499.315 268.716 499.636 268.284 499.846 267.996C514.908 247.346 530.198 218.051 531.128 175.901C531.953 138.509 530.397 118.522 522.164 90.2393ZM68.6429 252.218C39.8176 230.651 37.1238 178.966 42.4544 128.861C45.4328 100.805 64.2702 52.7906 74.5805 56.8769C86.8069 61.72 97.3069 125.654 114.399 171.616C125.924 202.605 131.861 211.373 127.754 226.725C121.921 248.529 91.9668 269.67 68.6429 252.218ZM468.981 234.009C447.431 240.432 431.392 228.258 426.023 203.021C421.518 181.842 442.499 176.772 452.117 120.887C458.045 86.4084 445.876 46.5097 472.026 46.5097C492.609 46.5097 507.443 104.04 508.629 123.422C511.067 163.368 500.415 224.644 468.981 234.009Z" fill="white" stroke="#DDAED1" stroke-width="4" stroke-miterlimit="10"/>
</svg>
