<svg width="300" height="300" viewBox="0 0 300 300" fill="none" xmlns="http://www.w3.org/2000/svg">
<path d="M83.241 272.206C78.0337 268.673 75.7715 262.333 75.7715 262.333C74.1433 259.03 73.6256 253.675 73.6256 251.906V251.891C59.1031 251.451 47.4732 239.716 47.4732 225.309C47.4732 219.748 49.2064 214.583 52.1739 210.311C52.8567 209.332 52.7517 208.009 51.8813 207.185C47.8858 203.413 45.3985 198.103 45.3985 192.217C45.3985 184.166 50.058 177.186 56.8634 173.753C58.2928 173.033 58.6642 171.207 57.6213 170.003C54.4737 166.378 52.5754 161.674 52.5754 156.534C52.5754 150.663 55.0477 145.368 59.0319 141.596C59.9623 140.716 60.0485 139.272 59.2157 138.303C54.8938 133.26 50.3657 126.48 48.2572 121.983C44.2205 113.381 42.8812 105.817 42.1609 94.0117C41.6319 85.432 42.4573 77.4434 43.9054 67.0125C45.4548 55.8352 48.7675 40.4789 59.6359 26.9811C62.1157 23.8995 73.1342 13.7753 80.5661 16.443C84.0551 17.6919 88.2381 20.6923 90.3578 38.9418C92.8976 60.8087 94.5033 65.3424 98.2999 75.4999C100.911 82.4945 103.391 86.2966 105.413 88.9939C106.133 89.9509 107.454 90.2502 108.523 89.6923C110.782 88.5136 113.359 87.8485 116.094 87.8485C117.332 87.8485 118.536 87.9852 119.695 88.2439C120.72 88.473 121.77 88.0554 122.333 87.1834C128.714 77.2698 139.954 70.689 152.754 70.689C166.564 70.689 178.562 78.3487 184.594 89.5925C185.315 90.9375 187.115 91.307 188.308 90.3389C189.974 88.9939 191.651 87.4642 193.096 85.7941C198.843 79.1357 202.745 73.6154 205.093 52.7314C207.768 28.9136 211.782 21.4165 218.73 18.2979C222.808 16.4652 226.837 17.304 228.878 17.7252C243.708 20.8031 250.536 39.8212 252.814 46.1581C257.503 59.205 259.364 70.8959 258.261 87.7007C256.97 107.362 251.122 115.361 244.065 125.301C243.194 126.524 239.199 131.978 232.964 136.164C231.598 137.08 231.523 139.035 232.81 140.051C237.398 143.676 240.336 149.248 240.336 155.489C240.336 158.862 239.477 162.044 237.965 164.822C237.263 166.112 237.878 167.727 239.274 168.225C247.355 171.122 253.125 178.756 253.125 187.716C253.125 192.653 251.373 197.183 248.447 200.745C247.753 201.591 247.693 202.781 248.323 203.675C251.35 207.972 253.121 213.19 253.121 218.817C253.121 229.148 247.137 238.101 238.4 242.502C237.623 242.894 237.117 243.655 237.053 244.512C236.055 258.302 224.376 269.176 210.117 269.176C208.65 269.176 203.022 268.104 202.857 268.204C202.737 268.274 203.326 273.019 194.739 278.554C185.754 284.344 150.92 284.373 132.477 281.384C123.732 279.965 114.304 279.751 112.744 279.78C98.2174 280.047 93.299 279.027 83.241 272.202V272.206Z" fill="#7856A0"/>
<path d="M132.605 241.493C125.206 241.493 119.32 246.119 119.32 247.472C119.32 250.816 127.06 256.184 133.381 256.184C140.28 256.184 147.468 249.766 147.468 247.394C147.468 246.241 139.999 241.493 132.605 241.493ZM132.605 241.493C125.206 241.493 119.32 246.119 119.32 247.472C119.32 250.816 127.06 256.184 133.381 256.184C140.28 256.184 147.468 249.766 147.468 247.394C147.468 246.241 139.999 241.493 132.605 241.493ZM132.605 241.493C125.206 241.493 119.32 246.119 119.32 247.472C119.32 250.816 127.06 256.184 133.381 256.184C140.28 256.184 147.468 249.766 147.468 247.394C147.468 246.241 139.999 241.493 132.605 241.493ZM132.605 241.493C125.206 241.493 119.32 246.119 119.32 247.472C119.32 250.816 127.06 256.184 133.381 256.184C140.28 256.184 147.468 249.766 147.468 247.394C147.468 246.241 139.999 241.493 132.605 241.493ZM247.122 188.263C247.122 177.995 238.775 169.644 228.394 169.445C230 168.041 231.358 166.371 232.401 164.505L203.949 176.085V177.84C203.9 180.367 204.069 182.654 204.069 185.219C204.069 200.911 191.238 213.651 175.309 213.651C160.479 213.651 148.264 202.633 146.647 188.452C146.523 187.399 146.463 186.327 146.463 185.241V175.15L121.327 175.172V181.745C121.335 182.891 121.346 184.051 121.346 185.241C121.346 200.933 108.433 213.651 92.4999 213.651C77.6736 213.651 63.8227 202.722 63.8227 188.452V174.529C56.1394 176.742 50.5232 183.733 50.5232 192.017C50.5232 198.709 54.1885 204.562 59.6546 207.728C55.3778 211.952 52.7329 217.775 52.7329 224.208C52.7329 237.096 63.3387 247.546 76.4206 247.546C76.9983 247.546 77.5723 247.523 78.1463 247.483C78.0713 248.229 78.03 248.994 78.03 249.763C78.03 262.606 88.602 273.019 101.639 273.019C109.528 273.019 116.51 269.213 120.802 263.364C124.025 272.956 133.209 279.877 144.032 279.877C151.134 279.877 157.53 276.898 161.995 272.139C166.061 275.092 171.085 276.832 176.517 276.832C186.834 276.832 195.662 270.558 199.282 261.668C202.051 262.739 205.071 263.327 208.233 263.327C221.777 263.327 232.754 252.515 232.754 239.18C232.754 239.029 232.754 238.881 232.75 238.729C241.019 234.846 246.728 226.54 246.728 216.922C246.728 211.191 244.695 205.922 241.307 201.78C244.894 198.362 247.122 193.569 247.122 188.263ZM166.613 228.742C166.613 228.742 166.583 228.768 166.564 228.782C165.881 229.289 159.849 233.638 152.511 233.878C152.604 234.739 152.653 235.611 152.653 236.498C152.653 248.432 144.025 258.106 133.381 258.106C122.738 258.106 114.113 248.432 114.113 236.498C114.113 235.6 114.162 234.717 114.259 233.848C107.217 233.386 101.515 229.274 100.851 228.782C100.832 228.768 100.817 228.753 100.802 228.742C100.51 228.531 100.322 228.188 100.322 227.807C100.322 227.164 100.851 226.643 101.504 226.643C101.781 226.643 102.04 226.739 102.247 226.902C102.25 226.905 102.254 226.909 102.258 226.909C102.558 227.127 108.606 231.546 115.602 231.546C117.347 231.546 119.151 231.273 120.937 230.589C122.58 229.961 130.849 226.425 132.128 218.459C132.222 217.864 132.278 217.269 132.286 216.659C128.407 215.2 121.459 206.572 123.773 202.304C126.872 196.607 140.397 196.496 143.079 202.437C144.959 206.605 139.286 214.342 135.122 216.371C135.122 217.077 135.178 217.771 135.287 218.459C136.566 226.425 144.835 229.961 146.478 230.589C148.264 231.273 150.068 231.546 151.813 231.546C158.81 231.546 164.857 227.127 165.157 226.909C165.161 226.909 165.165 226.909 165.169 226.902C165.375 226.739 165.634 226.643 165.915 226.643C166.564 226.643 167.093 227.164 167.093 227.807C167.093 228.188 166.906 228.531 166.613 228.742ZM132.605 241.493C125.206 241.493 119.32 246.119 119.32 247.472C119.32 250.816 127.06 256.184 133.381 256.184C140.28 256.184 147.468 249.766 147.468 247.394C147.468 246.241 139.999 241.493 132.605 241.493ZM132.605 241.493C125.206 241.493 119.32 246.119 119.32 247.472C119.32 250.816 127.06 256.184 133.381 256.184C140.28 256.184 147.468 249.766 147.468 247.394C147.468 246.241 139.999 241.493 132.605 241.493ZM132.605 241.493C125.206 241.493 119.32 246.119 119.32 247.472C119.32 250.816 127.06 256.184 133.381 256.184C140.28 256.184 147.468 249.766 147.468 247.394C147.468 246.241 139.999 241.493 132.605 241.493ZM248.529 51.2497C246.95 45.8809 241.574 26.4934 231.441 23.4894C229.846 23.0164 224.958 22.1776 221.653 23.5707C216.025 25.9465 213.868 35.1692 210.964 54.9373C208.503 71.6571 205.896 80.0558 201.09 85.4209C198.074 88.7944 194.859 92.9291 184.478 100.223C180.745 86.4888 168.027 76.3793 152.912 76.3793C140.682 76.3793 130.024 82.9896 124.419 92.785C124.426 92.7924 124.434 92.7998 124.441 92.8035C124.28 93.0584 124.133 93.3171 123.983 93.5794C123.976 93.5942 123.965 93.609 123.957 93.6238C123.878 93.7716 123.856 93.7827 123.781 93.9305C121.365 92.3047 119.688 92.2234 117.501 92.1199C117.388 92.1125 117.276 92.1125 117.163 92.1125C110.117 92.1125 104.404 97.7363 104.404 104.675C104.404 105.758 104.543 106.811 104.805 107.816C104.982 108.496 105.218 109.161 105.507 109.793C104.985 109.708 104.453 109.664 103.905 109.664C103.687 109.664 103.473 109.671 103.263 109.682C97.9735 110.011 93.7905 114.338 93.7905 119.625C93.7905 120.553 93.9181 121.454 94.1619 122.308C94.327 122.903 94.5521 123.479 94.8297 124.026C94.3607 124.307 93.9181 124.621 93.5054 124.972C91.2844 126.834 89.8776 129.609 89.8776 132.709C89.8776 136.644 92.1548 140.062 95.4825 141.747C96.1015 142.061 96.7543 142.32 97.4371 142.501C97.5609 143.103 97.7297 143.687 97.951 144.249C99.598 148.609 103.864 151.713 108.864 151.713C111.821 151.713 114.518 150.63 116.57 148.838C116.975 148.487 117.354 148.114 117.707 147.703C118.176 147.981 118.664 148.224 119.17 148.439C120.663 149.067 122.299 149.411 124.025 149.411C129.498 149.411 134.147 145.923 135.793 141.082C135.944 140.635 136.071 140.177 136.169 139.708C136.623 139.985 137.084 140.247 137.549 140.498C142.539 143.214 148.275 144.759 154.375 144.759C164.073 144.759 172.852 140.857 179.166 134.557C173.647 142.235 164.565 147.245 154.289 147.245C147.964 147.245 142.089 145.342 137.215 142.095C135.7 147.548 130.631 151.561 124.614 151.561C122.209 151.561 119.958 150.922 118.026 149.806C115.644 152.289 112.267 153.837 108.527 153.837C102.284 153.837 97.0656 149.529 95.7676 143.761C91.0556 142.235 87.6566 137.864 87.6566 132.709C87.6566 128.756 89.6525 125.268 92.71 123.169C92.3011 121.994 92.0798 120.734 92.0798 119.422C92.0798 113.418 96.6942 108.474 102.622 107.846C102.307 106.689 102.138 105.474 102.138 104.221C102.138 101.575 102.884 99.0997 104.182 96.9936C104.137 96.9197 104.085 96.8421 104.032 96.7645C101.504 92.8589 98.0636 88.0259 94.6721 79.9893C90.868 70.992 88.9059 65.9003 86.2723 46.7677C84.0063 30.3177 82.9634 23.3268 77.8387 21.9707C71.3446 20.2563 62.2808 32.1615 60.0861 36.1964C52.838 49.5316 50.1331 64.2708 49.5028 74.4838C48.9175 84.0094 48.5611 93.0067 49.5215 100.751C50.8421 111.411 52.988 115.465 57.021 122.792C59.467 127.244 65.9423 135.333 70.3917 139.689C63.7401 142.638 59.1069 149.218 59.1069 156.871C59.1069 162.029 61.2116 166.703 64.6255 170.102H203.161L234.603 157.54C234.671 156.908 234.708 156.265 234.708 155.618C234.708 146.399 227.862 138.754 218.907 137.35C229.876 133.397 238.61 122.167 239.702 120.686C245.659 112.62 251.707 101.176 252.075 84.7115C252.401 70.1052 251.786 62.2977 248.529 51.2497ZM69.15 114.523C57.7488 106.098 56.6834 85.9087 58.7918 66.3363C59.9698 55.377 67.4205 36.6213 71.4984 38.2176C76.3343 40.1094 80.4873 65.0837 87.2477 83.0377C91.8059 95.1424 94.1544 98.5677 92.53 104.565C90.2227 113.082 78.3752 121.34 69.15 114.523ZM227.494 107.41C218.97 109.919 212.626 105.163 210.503 95.305C208.721 87.0319 217.02 85.0514 220.824 63.2215C223.168 49.7533 218.355 34.1679 228.698 34.1679C236.839 34.1679 242.707 56.6407 243.176 64.2117C244.14 79.8156 239.927 103.752 227.494 107.41Z" fill="white" stroke="#A07EB7" stroke-width="12" stroke-miterlimit="10"/>
<path d="M132.605 241.493C125.206 241.493 119.32 246.119 119.32 247.472C119.32 250.816 127.06 256.184 133.381 256.184C140.28 256.184 147.468 249.766 147.468 247.394C147.468 246.241 139.999 241.493 132.605 241.493ZM132.605 241.493C125.206 241.493 119.32 246.119 119.32 247.472C119.32 250.816 127.06 256.184 133.381 256.184C140.28 256.184 147.468 249.766 147.468 247.394C147.468 246.241 139.999 241.493 132.605 241.493ZM132.605 241.493C125.206 241.493 119.32 246.119 119.32 247.472C119.32 250.816 127.06 256.184 133.381 256.184C140.28 256.184 147.468 249.766 147.468 247.394C147.468 246.241 139.999 241.493 132.605 241.493ZM132.605 241.493C125.206 241.493 119.32 246.119 119.32 247.472C119.32 250.816 127.06 256.184 133.381 256.184C140.28 256.184 147.468 249.766 147.468 247.394C147.468 246.241 139.999 241.493 132.605 241.493ZM247.122 188.263C247.122 177.995 238.775 169.644 228.394 169.445C230 168.041 231.358 166.371 232.401 164.505L203.949 176.085V177.84C203.9 180.367 204.069 182.654 204.069 185.219C204.069 200.911 191.238 213.651 175.309 213.651C160.479 213.651 148.264 202.633 146.647 188.452C146.523 187.399 146.463 186.327 146.463 185.241V175.15L121.327 175.172V181.745C121.335 182.891 121.346 184.051 121.346 185.241C121.346 200.933 108.433 213.651 92.4999 213.651C77.6736 213.651 63.8227 202.722 63.8227 188.452V174.529C56.1394 176.742 50.5232 183.733 50.5232 192.017C50.5232 198.709 54.1885 204.562 59.6546 207.728C55.3778 211.952 52.7329 217.775 52.7329 224.208C52.7329 237.096 63.3387 247.546 76.4206 247.546C76.9983 247.546 77.5723 247.523 78.1463 247.483C78.0713 248.229 78.03 248.994 78.03 249.763C78.03 262.606 88.602 273.019 101.639 273.019C109.528 273.019 116.51 269.213 120.802 263.364C124.025 272.956 133.209 279.877 144.032 279.877C151.134 279.877 157.53 276.898 161.995 272.139C166.061 275.092 171.085 276.832 176.517 276.832C186.834 276.832 195.662 270.558 199.282 261.668C202.051 262.739 205.071 263.327 208.233 263.327C221.777 263.327 232.754 252.515 232.754 239.18C232.754 239.029 232.754 238.881 232.75 238.729C241.019 234.846 246.728 226.54 246.728 216.922C246.728 211.191 244.695 205.922 241.307 201.78C244.894 198.362 247.122 193.569 247.122 188.263ZM166.613 228.742C166.613 228.742 166.583 228.768 166.564 228.782C165.881 229.289 159.849 233.638 152.511 233.878C152.604 234.739 152.653 235.611 152.653 236.498C152.653 248.432 144.025 258.106 133.381 258.106C122.738 258.106 114.113 248.432 114.113 236.498C114.113 235.6 114.162 234.717 114.259 233.848C107.217 233.386 101.515 229.274 100.851 228.782C100.832 228.768 100.817 228.753 100.802 228.742C100.51 228.531 100.322 228.188 100.322 227.807C100.322 227.164 100.851 226.643 101.504 226.643C101.781 226.643 102.04 226.739 102.247 226.902C102.25 226.905 102.254 226.909 102.258 226.909C102.558 227.127 108.606 231.546 115.602 231.546C117.347 231.546 119.151 231.273 120.937 230.589C122.58 229.961 130.849 226.425 132.128 218.459C132.222 217.864 132.278 217.269 132.286 216.659C128.407 215.2 121.459 206.572 123.773 202.304C126.872 196.607 140.397 196.496 143.079 202.437C144.959 206.605 139.286 214.342 135.122 216.371C135.122 217.077 135.178 217.771 135.287 218.459C136.566 226.425 144.835 229.961 146.478 230.589C148.264 231.273 150.068 231.546 151.813 231.546C158.81 231.546 164.857 227.127 165.157 226.909C165.161 226.909 165.165 226.909 165.169 226.902C165.375 226.739 165.634 226.643 165.915 226.643C166.564 226.643 167.093 227.164 167.093 227.807C167.093 228.188 166.906 228.531 166.613 228.742ZM132.605 241.493C125.206 241.493 119.32 246.119 119.32 247.472C119.32 250.816 127.06 256.184 133.381 256.184C140.28 256.184 147.468 249.766 147.468 247.394C147.468 246.241 139.999 241.493 132.605 241.493ZM132.605 241.493C125.206 241.493 119.32 246.119 119.32 247.472C119.32 250.816 127.06 256.184 133.381 256.184C140.28 256.184 147.468 249.766 147.468 247.394C147.468 246.241 139.999 241.493 132.605 241.493ZM132.605 241.493C125.206 241.493 119.32 246.119 119.32 247.472C119.32 250.816 127.06 256.184 133.381 256.184C140.28 256.184 147.468 249.766 147.468 247.394C147.468 246.241 139.999 241.493 132.605 241.493ZM248.529 51.2497C246.95 45.8809 241.574 26.4934 231.441 23.4894C229.846 23.0164 224.958 22.1776 221.653 23.5707C216.025 25.9465 213.868 35.1692 210.964 54.9373C208.503 71.6571 205.896 80.0558 201.09 85.4209C198.074 88.7944 194.859 92.9291 184.478 100.223C180.745 86.4888 168.027 76.3793 152.912 76.3793C140.682 76.3793 130.024 82.9896 124.419 92.785C124.426 92.7924 124.434 92.7998 124.441 92.8035C124.28 93.0584 124.133 93.3171 123.983 93.5794C123.976 93.5942 123.965 93.609 123.957 93.6238C123.878 93.7716 123.856 93.7827 123.781 93.9305C121.365 92.3047 119.688 92.2234 117.501 92.1199C117.388 92.1125 117.276 92.1125 117.163 92.1125C110.117 92.1125 104.404 97.7363 104.404 104.675C104.404 105.758 104.543 106.811 104.805 107.816C104.982 108.496 105.218 109.161 105.507 109.793C104.985 109.708 104.453 109.664 103.905 109.664C103.687 109.664 103.473 109.671 103.263 109.682C97.9735 110.011 93.7905 114.338 93.7905 119.625C93.7905 120.553 93.9181 121.454 94.1619 122.308C94.327 122.903 94.5521 123.479 94.8297 124.026C94.3607 124.307 93.9181 124.621 93.5054 124.972C91.2844 126.834 89.8776 129.609 89.8776 132.709C89.8776 136.644 92.1548 140.062 95.4825 141.747C96.1015 142.061 96.7543 142.32 97.4371 142.501C97.5609 143.103 97.7297 143.687 97.951 144.249C99.598 148.609 103.864 151.713 108.864 151.713C111.821 151.713 114.518 150.63 116.57 148.838C116.975 148.487 117.354 148.114 117.707 147.703C118.176 147.981 118.664 148.224 119.17 148.439C120.663 149.067 122.299 149.411 124.025 149.411C129.498 149.411 134.147 145.923 135.793 141.082C135.944 140.635 136.071 140.177 136.169 139.708C136.623 139.985 137.084 140.247 137.549 140.498C142.539 143.214 148.275 144.759 154.375 144.759C164.073 144.759 172.852 140.857 179.166 134.557C173.647 142.235 164.565 147.245 154.289 147.245C147.964 147.245 142.089 145.342 137.215 142.095C135.7 147.548 130.631 151.561 124.614 151.561C122.209 151.561 119.958 150.922 118.026 149.806C115.644 152.289 112.267 153.837 108.527 153.837C102.284 153.837 97.0656 149.529 95.7676 143.761C91.0556 142.235 87.6566 137.864 87.6566 132.709C87.6566 128.756 89.6525 125.268 92.71 123.169C92.3011 121.994 92.0798 120.734 92.0798 119.422C92.0798 113.418 96.6942 108.474 102.622 107.846C102.307 106.689 102.138 105.474 102.138 104.221C102.138 101.575 102.884 99.0997 104.182 96.9936C104.137 96.9197 104.085 96.8421 104.032 96.7645C101.504 92.8589 98.0636 88.0259 94.6721 79.9893C90.868 70.992 88.9059 65.9003 86.2723 46.7677C84.0063 30.3177 82.9634 23.3268 77.8387 21.9707C71.3446 20.2563 62.2808 32.1615 60.0861 36.1964C52.838 49.5316 50.1331 64.2708 49.5028 74.4838C48.9175 84.0094 48.5611 93.0067 49.5215 100.751C50.8421 111.411 52.988 115.465 57.021 122.792C59.467 127.244 65.9423 135.333 70.3917 139.689C63.7401 142.638 59.1069 149.218 59.1069 156.871C59.1069 162.029 61.2116 166.703 64.6255 170.102H203.161L234.603 157.54C234.671 156.908 234.708 156.265 234.708 155.618C234.708 146.399 227.862 138.754 218.907 137.35C229.876 133.397 238.61 122.167 239.702 120.686C245.659 112.62 251.707 101.176 252.075 84.7115C252.401 70.1052 251.786 62.2977 248.529 51.2497ZM69.15 114.523C57.7488 106.098 56.6834 85.9087 58.7918 66.3363C59.9698 55.377 67.4205 36.6213 71.4984 38.2176C76.3343 40.1094 80.4873 65.0837 87.2477 83.0377C91.8059 95.1424 94.1544 98.5677 92.53 104.565C90.2227 113.082 78.3752 121.34 69.15 114.523ZM227.494 107.41C218.97 109.919 212.626 105.163 210.503 95.305C208.721 87.0319 217.02 85.0514 220.824 63.2215C223.168 49.7533 218.355 34.1679 228.698 34.1679C236.839 34.1679 242.707 56.6407 243.176 64.2117C244.14 79.8156 239.927 103.752 227.494 107.41Z" fill="white" stroke="#DDAED1" stroke-width="4" stroke-miterlimit="10"/>
</svg>
